<svg width="484.16" height="234.1pt" viewBox="0 0 363.12 234.1" class="displayed_equation" xmlns="http://www.w3.org/2000/svg">
  <path d="M 492.109375 509.710938 L 3507.226563 509.710938 M 492.109375 677.210938 L 3507.226563 677.210938 M 492.109375 844.710938 L 3507.226563 844.710938 M 492.109375 1012.210938 L 3507.226563 1012.210938 M 492.109375 1179.710938 L 3507.226563 1179.710938 M 492.109375 1347.25 L 3507.226563 1347.25 M 492.109375 1514.75 L 3507.226563 1514.75 M 492.109375 1682.25 L 3507.226563 1682.25 M 492.109375 1849.789063 L 3507.226563 1849.789063 M 492.109375 2017.210938 L 3507.226563 2017.210938 M 492.109375 509.710938 L 492.109375 2017.289063 M 793.59375 509.710938 L 793.59375 2017.289063 M 1095.117188 509.710938 L 1095.117188 2017.289063 M 1396.640625 509.710938 L 1396.640625 2017.289063 M 1698.164063 509.710938 L 1698.164063 2017.289063 M 1999.6875 509.710938 L 1999.6875 2017.289063 M 2301.171875 509.710938 L 2301.171875 2017.289063 M 2602.695313 509.710938 L 2602.695313 2017.289063 M 2904.21875 509.710938 L 2904.21875 2017.289063 M 3205.703125 509.710938 L 3205.703125 2017.289063 M 3507.226563 509.710938 L 3507.226563 2017.289063" transform="matrix(.1 0 0 -.1 0 234.1)" fill="none" stroke-width="3.985" stroke-linejoin="round" stroke="#a5a5a6" stroke-miterlimit="10" />
  <path d="M 492.109375 509.710938 L 3457.265625 509.710938" transform="matrix(.1 0 0 -.1 0 234.1)" fill="none" stroke-width="7.97" stroke-linejoin="round" stroke="#000" stroke-miterlimit="10" />
  <path d="M 349.589844 183.128906 L 344.121094 181.066406 L 345.925781 183.128906 L 344.121094 185.195313" />
  <path d="M 3495.898438 509.710938 L 3441.210938 530.335938 L 3459.257813 509.710938 L 3441.210938 489.046875 Z M 3495.898438 509.710938" transform="matrix(.1 0 0 -.1 0 234.1)" fill="none" stroke-width="7.97" stroke="#000" stroke-miterlimit="10" />
  <path d="M190.992188 208.570313L190.992188 208.90625C191.828125 208.90625 192.085938 209.027344 192.085938 209.84375L192.085938 214.515625C192.085938 215.421875 191.972656 215.566406 190.992188 215.566406L190.992188 215.898438 194.179688 215.898438C196.589844 215.898438 198.1875 214.761719 198.1875 212.195313 198.1875 209.472656 196.378906 208.570313 194.058594 208.570313zM193.109375 209.050781C193.320313 209.027344 193.476563 209.027344 193.65625 209.027344 195.964844 209.027344 197.015625 210.175781 197.015625 212.296875 197.015625 214.804688 195.796875 215.476563 193.769531 215.476563 193.546875 215.476563 193.332031 215.464844 193.109375 215.441406L193.109375 209.050781M202.234375 215.207031C202.304688 215.699219 202.414063 215.957031 202.90625 215.957031 203.476563 215.957031 203.742188 215.722656 204.109375 215.1875L203.945313 215.007813C203.789063 215.175781 203.632813 215.285156 203.417969 215.285156 203.183594 215.285156 203.085938 215.195313 203.085938 214.738281L203.085938 212.207031C203.085938 211.046875 202.628906 210.488281 201.410156 210.488281 200.195313 210.488281 199.445313 211.09375 199.445313 211.714844 199.445313 212.085938 199.691406 212.25 199.914063 212.25 200.226563 212.25 200.40625 212.085938 200.40625 211.738281 200.40625 211.070313 200.519531 210.835938 201.15625 210.835938 201.824219 210.835938 202.15625 211.203125 202.15625 212.171875L202.15625 212.664063C201.199219 212.964844 199.222656 213.257813 199.222656 214.726563 199.222656 215.441406 199.691406 215.976563 200.550781 215.976563 201.265625 215.976563 201.667969 215.664063 202.191406 215.207031zM202.15625 214.875C201.777344 215.1875 201.378906 215.363281 201.007813 215.363281 200.53125 215.363281 200.207031 215.019531 200.207031 214.460938 200.207031 213.589844 201.140625 213.289063 202.15625 213.03125L202.15625 214.875" />
  <path d="M 209.398438 210.625 L 207.503906 210.625 L 207.503906 210.945313 C 207.871094 210.945313 208.128906 211.003906 208.128906 211.226563 C 208.128906 211.3125 208.09375 211.414063 208.070313 211.503906 L 207.003906 214.773438 L 206.921875 214.773438 L 206.765625 214.195313 L 205.671875 211.738281 C 205.605469 211.582031 205.515625 211.390625 205.515625 211.257813 C 205.515625 211.058594 205.652344 210.957031 206.152344 210.957031 L 206.152344 210.625 L 203.765625 210.625 L 203.765625 210.945313 C 204.167969 210.945313 204.324219 211.09375 204.4375 211.347656 L 206.074219 214.929688 C 206.210938 215.230469 206.410156 215.699219 206.410156 215.84375 C 206.410156 216.167969 205.773438 217.550781 205.417969 217.550781 C 205.140625 217.550781 204.90625 217.304688 204.515625 217.304688 C 204.214844 217.304688 203.988281 217.449219 203.988281 217.785156 C 203.988281 218.210938 204.3125 218.367188 204.8125 218.367188 C 205.71875 218.367188 206.265625 217.785156 206.890625 216.144531 L 208.628906 211.570313 C 208.785156 211.136719 208.953125 210.945313 209.398438 210.945313 L 209.398438 210.625" />
  <path d="M 492.109375 509.710938 L 492.109375 1967.289063" transform="matrix(.1 0 0 -.1 0 234.1)" fill="none" stroke-width="7.97" stroke-linejoin="round" stroke="#000" stroke-miterlimit="10" />
  <path d="M 49.210938 33.507813 L 47.144531 38.976563 L 49.210938 37.171875 L 51.273438 38.976563" />
  <path d="M 492.109375 2005.921875 L 471.445313 1951.234375 L 492.109375 1969.28125 L 512.734375 1951.234375 Z M 492.109375 2005.921875" transform="matrix(.1 0 0 -.1 0 234.1)" fill="none" stroke-width="7.97" stroke="#000" stroke-miterlimit="10" />
  <path d="M16.269531 131.222656L16.269531 133.855469 16.605469 133.855469C16.605469 133.386719 16.671875 133.1875 16.882813 133.007813 17.074219 132.839844 17.375 132.796875 18.042969 132.796875L21.660156 132.796875 21.660156 132.851563 16.269531 136.980469 16.269531 138.875 16.605469 138.875C16.605469 138.375 16.71875 138.183594 17.171875 137.828125L21.9375 137.828125C23.0625 137.828125 23.265625 137.996094 23.265625 138.875L23.601563 138.875 23.601563 136.265625 23.265625 136.265625C23.265625 137.101563 23.054688 137.28125 21.9375 137.28125L17.71875 137.28125 17.71875 137.226563 23.6875 132.605469 23.6875 132.238281 18.101563 132.238281C17.296875 132.238281 16.984375 132.128906 16.828125 131.949219 16.671875 131.78125 16.605469 131.625 16.605469 131.222656L16.269531 131.222656M23.097656 124.773438L23.097656 124.886719C23.097656 125.421875 23.019531 125.554688 22.359375 125.554688L18.265625 125.554688 18.265625 125.824219 18.433594 127.386719 18.746094 127.386719C18.746094 126.671875 18.804688 126.484375 19.394531 126.484375L22.328125 126.484375C22.71875 126.929688 22.996094 127.285156 22.996094 127.855469 22.996094 128.433594 22.664063 128.859375 21.523438 128.859375L18.265625 128.859375 18.265625 129.105469 18.433594 130.542969 18.746094 130.542969C18.757813 129.941406 18.804688 129.785156 19.40625 129.785156L21.671875 129.785156C23.1875 129.785156 23.710938 129.25 23.710938 128.324219 23.710938 127.609375 23.375 127.085938 22.796875 126.492188L22.796875 126.4375 23.65625 126.4375 23.65625 126.191406 23.398438 124.773438 23.097656 124.773438M19.617188 122.4375C19.316406 122.113281 18.902344 121.621094 18.902344 121.042969 18.902344 120.527344 19.148438 120.148438 20.097656 120.148438L22.304688 120.148438C23.085938 120.148438 23.277344 120.214844 23.277344 121.007813L23.601563 121.007813 23.601563 118.363281 23.277344 118.363281C23.277344 119.167969 23.074219 119.222656 22.304688 119.222656L19.59375 119.222656C19.28125 118.855469 18.902344 118.398438 18.902344 117.941406 18.902344 117.414063 19.148438 116.980469 20.164063 116.980469L22.304688 116.980469C22.984375 116.980469 23.277344 117.015625 23.277344 117.773438L23.601563 117.773438 23.601563 115.253906 23.277344 115.253906C23.277344 116.023438 23.007813 116.054688 22.304688 116.054688L20.03125 116.054688C18.679688 116.054688 18.1875 116.621094 18.1875 117.492188 18.1875 118.085938 18.511719 118.65625 19.117188 119.265625L19.117188 119.3125C18.578125 119.535156 18.1875 119.914063 18.1875 120.550781 18.1875 121.308594 18.601563 121.820313 19.125 122.425781L19.125 122.46875 18.222656 122.46875 18.222656 122.738281 18.546875 124.132813 18.871094 124.132813C18.871094 124.132813 18.847656 123.996094 18.847656 123.832031 18.847656 123.519531 18.949219 123.363281 19.351563 123.363281L22.472656 123.363281C23.140625 123.363281 23.277344 123.441406 23.277344 124.144531L23.601563 124.144531 23.601563 121.601563 23.277344 121.601563C23.277344 122.289063 23.140625 122.4375 22.515625 122.4375L19.617188 122.4375M15.722656 113.082031L15.722656 113.371094 16.113281 114.8125 16.425781 114.8125C16.425781 114.8125 16.40625 114.675781 16.40625 114.496094 16.40625 114.074219 16.492188 114.007813 16.996094 114.007813L23.265625 114.007813C23.410156 113.738281 23.710938 113.09375 23.710938 112.144531 23.710938 110.59375 22.664063 109.46875 20.664063 109.46875 19.214844 109.46875 18.1875 110.226563 18.1875 111.328125 18.1875 112.078125 18.667969 112.65625 19.136719 113.046875L19.136719 113.082031zM19.628906 113.082031C19.359375 112.882813 18.949219 112.390625 18.949219 111.820313 18.949219 110.761719 19.953125 110.484375 21.023438 110.484375 22.261719 110.484375 23.253906 110.882813 23.253906 111.945313 23.253906 112.535156 22.984375 112.871094 22.730469 113.082031L19.628906 113.082031M22.003906 104.46875C22.472656 104.828125 22.875 105.171875 22.875 106.078125 22.875 106.96875 22.171875 107.816406 20.632813 107.816406L20.632813 104.292969C19.070313 104.347656 18.1875 105.148438 18.1875 106.367188 18.1875 107.671875 19.082031 108.71875 20.945313 108.71875 22.742188 108.71875 23.710938 107.683594 23.710938 106.34375 23.710938 105.195313 23.007813 104.660156 22.160156 104.257813zM20.21875 107.828125C19.183594 107.738281 18.636719 107.292969 18.636719 106.535156 18.636719 105.742188 19.394531 105.371094 20.21875 105.339844L20.21875 107.828125M18.222656 101.859375L18.222656 102.128906 18.558594 103.507813 18.871094 103.507813C18.871094 103.507813 18.847656 103.386719 18.847656 103.164063 18.847656 102.761719 19.046875 102.761719 19.449219 102.761719L22.515625 102.761719C23.140625 102.761719 23.277344 102.839844 23.277344 103.578125L23.601563 103.578125 23.601563 100.785156 23.277344 100.785156C23.277344 101.621094 23.164063 101.835938 22.460938 101.835938L19.917969 101.835938C19.472656 101.570313 19.003906 101.210938 19.003906 100.953125 19.003906 100.820313 19.382813 100.597656 19.382813 100.230469 19.382813 99.984375 19.203125 99.738281 18.78125 99.738281 18.402344 99.738281 18.15625 99.949219 18.15625 100.386719 18.15625 100.921875 18.546875 101.257813 19.371094 101.824219L19.371094 101.859375 18.222656 101.859375M18.390625 92.089844L16.160156 92.167969 16.160156 92.460938C16.394531 92.515625 16.484375 92.628906 16.484375 92.804688 16.484375 93.074219 16.136719 93.320313 16.136719 94.335938 16.148438 95.492188 16.773438 96.453125 17.945313 96.453125 19.117188 96.453125 19.648438 95.550781 20.164063 94.65625 20.6875 93.742188 21.078125 92.804688 22.0625 92.804688 22.90625 92.804688 23.242188 93.328125 23.242188 94.164063 23.253906 95.304688 22.898438 95.871094 21.359375 96.265625L21.359375 96.609375 23.765625 96.507813 23.765625 96.160156C23.542969 96.152344 23.398438 96.019531 23.398438 95.863281 23.398438 95.605469 23.734375 95.171875 23.734375 94.007813 23.734375 92.714844 23.03125 91.746094 21.738281 91.746094 20.410156 91.746094 19.90625 92.851563 19.351563 93.84375 18.871094 94.679688 18.46875 95.484375 17.632813 95.484375 16.9375 95.484375 16.582031 95.046875 16.582031 94.289063 16.570313 93.160156 17.164063 92.738281 18.390625 92.425781L18.390625 92.089844M18.1875 88.421875C18.1875 89.929688 19.28125 90.921875 20.898438 90.921875 22.707031 90.921875 23.710938 89.984375 23.710938 88.421875 23.710938 86.972656 22.730469 85.945313 20.855469 85.945313 19.203125 85.945313 18.1875 86.894531 18.1875 88.421875zM18.613281 88.464844C18.613281 87.472656 19.539063 86.972656 20.910156 86.972656 22.730469 86.972656 23.265625 87.460938 23.265625 88.378906 23.277344 89.335938 22.53125 89.882813 20.753906 89.882813 19.328125 89.882813 18.613281 89.3125 18.613281 88.464844M23.277344 82.699219C23.277344 83.503906 23.121094 83.558594 22.472656 83.558594L15.722656 83.558594 15.722656 83.835938 16.113281 85.308594 16.414063 85.308594C16.414063 85.308594 16.394531 85.140625 16.394531 84.953125 16.394531 84.671875 16.414063 84.484375 16.875 84.484375L22.472656 84.484375C23.097656 84.484375 23.277344 84.53125 23.277344 85.265625L23.601563 85.265625 23.601563 82.699219 23.277344 82.699219M23.398438 76.664063L23.097656 76.664063 23.097656 76.898438C23.097656 77.3125 22.984375 77.457031 22.40625 77.457031L15.722656 77.457031 15.722656 77.757813 16.113281 79.164063 16.425781 79.164063C16.425781 79.164063 16.40625 78.976563 16.40625 78.875 16.40625 78.4375 16.503906 78.382813 16.996094 78.382813L18.457031 78.382813C18.265625 78.730469 18.1875 79.097656 18.1875 79.464844 18.1875 80.871094 19.316406 82.03125 21.15625 82.03125 22.585938 82.03125 23.6875 81.382813 23.6875 80.121094 23.6875 79.386719 23.265625 78.820313 22.886719 78.394531L22.886719 78.351563 23.65625 78.351563 23.65625 78.09375zM22.472656 78.382813C22.742188 78.773438 22.886719 79.074219 22.886719 79.601563 22.886719 80.546875 22.261719 81.0625 20.722656 81.0625 19.316406 81.0625 18.636719 80.425781 18.636719 79.488281 18.636719 78.796875 19.070313 78.472656 19.527344 78.382813L22.472656 78.382813" />
  <path d="M 473.554688 509.710938 L 510.664063 509.710938" transform="matrix(.1 0 0 -.1 0 234.1)" fill="none" stroke-width="7.97" stroke-linejoin="round" stroke="#000" stroke-miterlimit="10" />
  <path d="M 43.421875 183.164063 C 43.421875 180.867188 42.417969 179.539063 40.976563 179.539063 C 39.359375 179.539063 38.5 181.011719 38.5 183.128906 C 38.5 185.105469 39.160156 186.824219 40.957031 186.824219 C 42.707031 186.824219 43.421875 185.070313 43.421875 183.164063 Z M 42.339844 183.230469 C 42.339844 185.371094 41.835938 186.421875 40.957031 186.421875 C 40.0625 186.421875 39.570313 185.351563 39.570313 183.1875 C 39.570313 180.976563 40.0625 179.917969 40.945313 179.917969 C 41.859375 179.917969 42.339844 180.964844 42.339844 183.230469" />
  <path d="M 473.554688 677.210938 L 510.664063 677.210938" transform="matrix(.1 0 0 -.1 0 234.1)" fill="none" stroke-width="7.97" stroke-linejoin="round" stroke="#000" stroke-miterlimit="10" />
  <path d="M 42.851563 163.675781 L 43.03125 162.773438 L 39.972656 162.773438 L 39.28125 165.683594 L 39.414063 165.851563 C 39.570313 165.851563 39.628906 165.851563 39.917969 165.875 C 41.457031 165.953125 42.328125 166.40625 42.328125 167.804688 C 42.328125 168.960938 41.625 169.386719 40.832031 169.386719 C 40.117188 169.386719 39.75 168.839844 39.304688 168.839844 C 39.023438 168.839844 38.859375 169.0625 38.859375 169.320313 C 38.859375 169.734375 39.28125 169.945313 40.140625 169.945313 C 41.914063 169.945313 43.140625 169.074219 43.140625 167.355469 C 43.140625 165.605469 41.769531 165.082031 40.453125 164.980469 L 39.929688 164.945313 L 40.230469 163.675781 L 42.851563 163.675781" />
  <path d="M 473.554688 844.710938 L 510.664063 844.710938" transform="matrix(.1 0 0 -.1 0 234.1)" fill="none" stroke-width="7.97" stroke-linejoin="round" stroke="#000" stroke-miterlimit="10" />
  <path d="M37.453125 153.199219L37.453125 152.886719C36.425781 152.886719 36.015625 152.6875 36.015625 152.140625L36.015625 146.070313 35.691406 146.070313 33.523438 146.683594 33.523438 147.054688C33.871094 146.941406 34.441406 146.875 34.664063 146.875 34.941406 146.875 35.03125 147.03125 35.03125 147.421875L35.03125 152.140625C35.03125 152.699219 34.640625 152.886719 33.59375 152.886719L33.59375 153.199219 37.453125 153.199219M43.421875 149.664063C43.421875 147.367188 42.417969 146.039063 40.976563 146.039063 39.359375 146.039063 38.5 147.511719 38.5 149.628906 38.5 151.605469 39.160156 153.324219 40.957031 153.324219 42.707031 153.324219 43.421875 151.570313 43.421875 149.664063zM42.339844 149.730469C42.339844 151.871094 41.835938 152.921875 40.957031 152.921875 40.0625 152.921875 39.570313 151.851563 39.570313 149.6875 39.570313 147.476563 40.0625 146.417969 40.945313 146.417969 41.859375 146.417969 42.339844 147.464844 42.339844 149.730469" />
  <path d="M 473.554688 1012.210938 L 510.664063 1012.210938" transform="matrix(.1 0 0 -.1 0 234.1)" fill="none" stroke-width="7.97" stroke-linejoin="round" stroke="#000" stroke-miterlimit="10" />
  <path d="M37.453125 136.398438L37.453125 136.085938C36.425781 136.085938 36.015625 135.886719 36.015625 135.339844L36.015625 129.273438 35.691406 129.273438 33.523438 129.882813 33.523438 130.253906C33.871094 130.140625 34.441406 130.074219 34.664063 130.074219 34.941406 130.074219 35.03125 130.230469 35.03125 130.621094L35.03125 135.339844C35.03125 135.898438 34.640625 136.085938 33.59375 136.085938L33.59375 136.398438 37.453125 136.398438M42.851563 130.273438L43.03125 129.371094 39.972656 129.371094 39.28125 132.28125 39.414063 132.449219C39.570313 132.449219 39.628906 132.449219 39.917969 132.472656 41.457031 132.550781 42.328125 133.007813 42.328125 134.402344 42.328125 135.5625 41.625 135.988281 40.832031 135.988281 40.117188 135.988281 39.75 135.441406 39.304688 135.441406 39.023438 135.441406 38.859375 135.664063 38.859375 135.921875 38.859375 136.332031 39.28125 136.546875 40.140625 136.546875 41.914063 136.546875 43.140625 135.675781 43.140625 133.957031 43.140625 132.203125 41.769531 131.679688 40.453125 131.582031L39.929688 131.546875 40.230469 130.273438 42.851563 130.273438" />
  <path d="M 473.554688 1179.710938 L 510.664063 1179.710938" transform="matrix(.1 0 0 -.1 0 234.1)" fill="none" stroke-width="7.97" stroke-linejoin="round" stroke="#000" stroke-miterlimit="10" />
  <path d="M37.875 117.914063L37.554688 117.914063C37.296875 118.585938 37.152344 118.820313 36.558594 118.820313L35.007813 118.820313 34.226563 118.851563 34.226563 118.796875 35.703125 117.402344C36.882813 116.207031 37.519531 115.4375 37.519531 114.445313 37.519531 113.273438 36.636719 112.515625 35.378906 112.515625 34.296875 112.515625 33.539063 113.140625 33.191406 114.222656L33.460938 114.335938C33.871094 113.496094 34.363281 113.242188 35.085938 113.242188 35.945313 113.242188 36.480469 113.777344 36.480469 114.613281 36.480469 115.785156 35.921875 116.488281 34.820313 117.625L33.125 119.320313 33.125 119.699219 37.519531 119.699219 37.875 117.914063M43.421875 116.164063C43.421875 113.867188 42.417969 112.535156 40.976563 112.535156 39.359375 112.535156 38.5 114.011719 38.5 116.128906 38.5 118.105469 39.160156 119.824219 40.957031 119.824219 42.707031 119.824219 43.421875 118.070313 43.421875 116.164063zM42.339844 116.230469C42.339844 118.371094 41.835938 119.421875 40.957031 119.421875 40.0625 119.421875 39.570313 118.351563 39.570313 116.1875 39.570313 113.976563 40.0625 112.917969 40.945313 112.917969 41.859375 112.917969 42.339844 113.964844 42.339844 116.230469" />
  <path d="M 473.554688 1347.25 L 510.664063 1347.25" transform="matrix(.1 0 0 -.1 0 234.1)" fill="none" stroke-width="7.97" stroke-linejoin="round" stroke="#000" stroke-miterlimit="10" />
  <path d="M37.875 101.117188L37.554688 101.117188C37.296875 101.785156 37.152344 102.019531 36.558594 102.019531L35.007813 102.019531 34.226563 102.050781 34.226563 101.996094 35.703125 100.601563C36.882813 99.40625 37.519531 98.640625 37.519531 97.644531 37.519531 96.472656 36.636719 95.714844 35.378906 95.714844 34.296875 95.714844 33.539063 96.339844 33.191406 97.421875L33.460938 97.535156C33.871094 96.695313 34.363281 96.441406 35.085938 96.441406 35.945313 96.441406 36.480469 96.976563 36.480469 97.8125 36.480469 98.984375 35.921875 99.6875 34.820313 100.824219L33.125 102.519531 33.125 102.898438 37.519531 102.898438 37.875 101.117188M42.851563 96.773438L43.03125 95.871094 39.972656 95.871094 39.28125 98.78125 39.414063 98.949219C39.570313 98.949219 39.628906 98.949219 39.917969 98.972656 41.457031 99.050781 42.328125 99.507813 42.328125 100.902344 42.328125 102.0625 41.625 102.488281 40.832031 102.488281 40.117188 102.488281 39.75 101.941406 39.304688 101.941406 39.023438 101.941406 38.859375 102.164063 38.859375 102.421875 38.859375 102.832031 39.28125 103.046875 40.140625 103.046875 41.914063 103.046875 43.140625 102.175781 43.140625 100.457031 43.140625 98.703125 41.769531 98.179688 40.453125 98.082031L39.929688 98.046875 40.230469 96.773438 42.851563 96.773438" />
  <path d="M 473.554688 1514.75 L 510.664063 1514.75" transform="matrix(.1 0 0 -.1 0 234.1)" fill="none" stroke-width="7.97" stroke-linejoin="round" stroke="#000" stroke-miterlimit="10" />
  <path d="M33.660156 80.644531C34.039063 80.054688 34.453125 79.742188 35.121094 79.742188 35.8125 79.742188 36.257813 80.121094 36.257813 80.777344 36.257813 81.679688 35.46875 82.296875 34.707031 82.296875L34.496094 82.296875 34.496094 82.71875 34.71875 82.71875C35.789063 82.71875 36.738281 83.378906 36.738281 84.371094 36.738281 85.464844 36.058594 85.785156 35.355469 85.785156 35.085938 85.785156 34.929688 85.742188 34.453125 85.496094 34.0625 85.296875 33.972656 85.242188 33.792969 85.242188 33.503906 85.242188 33.359375 85.496094 33.359375 85.730469 33.359375 86.023438 33.601563 86.34375 34.609375 86.34375 36.234375 86.34375 37.652344 85.5625 37.652344 84.035156 37.652344 83.042969 36.90625 82.453125 36.015625 82.171875L36.015625 82.140625C36.714844 81.691406 37.21875 81.28125 37.21875 80.511719 37.21875 79.660156 36.558594 79.015625 35.421875 79.015625 34.507813 79.015625 33.816406 79.527344 33.402344 80.496094L33.660156 80.644531M43.421875 82.664063C43.421875 80.367188 42.417969 79.035156 40.976563 79.035156 39.359375 79.035156 38.5 80.511719 38.5 82.628906 38.5 84.605469 39.160156 86.324219 40.957031 86.324219 42.707031 86.324219 43.421875 84.570313 43.421875 82.664063zM42.339844 82.730469C42.339844 84.871094 41.835938 85.921875 40.957031 85.921875 40.0625 85.921875 39.570313 84.851563 39.570313 82.6875 39.570313 80.476563 40.0625 79.417969 40.945313 79.417969 41.859375 79.417969 42.339844 80.464844 42.339844 82.730469" />
  <path d="M 473.554688 1682.25 L 510.664063 1682.25" transform="matrix(.1 0 0 -.1 0 234.1)" fill="none" stroke-width="7.97" stroke-linejoin="round" stroke="#000" stroke-miterlimit="10" />
  <path d="M33.660156 63.84375C34.039063 63.253906 34.453125 62.941406 35.121094 62.941406 35.8125 62.941406 36.257813 63.320313 36.257813 63.976563 36.257813 64.882813 35.46875 65.496094 34.707031 65.496094L34.496094 65.496094 34.496094 65.917969 34.71875 65.917969C35.789063 65.917969 36.738281 66.578125 36.738281 67.570313 36.738281 68.664063 36.058594 68.988281 35.355469 68.988281 35.085938 68.988281 34.929688 68.941406 34.453125 68.695313 34.0625 68.496094 33.972656 68.441406 33.792969 68.441406 33.503906 68.441406 33.359375 68.695313 33.359375 68.929688 33.359375 69.222656 33.601563 69.546875 34.609375 69.546875 36.234375 69.546875 37.652344 68.765625 37.652344 67.234375 37.652344 66.242188 36.90625 65.652344 36.015625 65.371094L36.015625 65.339844C36.714844 64.890625 37.21875 64.480469 37.21875 63.710938 37.21875 62.863281 36.558594 62.214844 35.421875 62.214844 34.507813 62.214844 33.816406 62.726563 33.402344 63.699219L33.660156 63.84375M42.851563 63.273438L43.03125 62.371094 39.972656 62.371094 39.28125 65.28125 39.414063 65.449219C39.570313 65.449219 39.628906 65.449219 39.917969 65.472656 41.457031 65.550781 42.328125 66.007813 42.328125 67.402344 42.328125 68.5625 41.625 68.988281 40.832031 68.988281 40.117188 68.988281 39.75 68.441406 39.304688 68.441406 39.023438 68.441406 38.859375 68.664063 38.859375 68.921875 38.859375 69.332031 39.28125 69.546875 40.140625 69.546875 41.914063 69.546875 43.140625 68.675781 43.140625 66.957031 43.140625 65.203125 41.769531 64.679688 40.453125 64.582031L39.929688 64.546875 40.230469 63.273438 42.851563 63.273438" />
  <path d="M 473.554688 1849.75 L 510.664063 1849.75" transform="matrix(.1 0 0 -.1 0 234.1)" fill="none" stroke-width="7.97" stroke-linejoin="round" stroke="#000" stroke-miterlimit="10" />
  <path d="M38.066406 50.9375L38.066406 50.167969 36.929688 50.167969 36.929688 45.503906 36.25 45.503906 32.84375 50.234375 32.84375 50.9375 35.9375 50.9375 35.9375 52.699219 36.929688 52.699219 36.929688 50.9375zM35.9375 50.167969L33.460938 50.167969 33.460938 50.121094 35.890625 46.71875 35.9375 46.71875 35.9375 50.167969M43.421875 49.164063C43.421875 46.867188 42.417969 45.535156 40.976563 45.535156 39.359375 45.535156 38.5 47.011719 38.5 49.128906 38.5 51.105469 39.160156 52.824219 40.957031 52.824219 42.707031 52.824219 43.421875 51.070313 43.421875 49.164063zM42.339844 49.230469C42.339844 51.371094 41.835938 52.421875 40.957031 52.421875 40.0625 52.421875 39.570313 51.351563 39.570313 49.1875 39.570313 46.976563 40.0625 45.917969 40.945313 45.917969 41.859375 45.917969 42.339844 46.964844 42.339844 49.230469M63.449219 194.078125L63.359375 192.070313 57.191406 192.070313 57.066406 194.078125 57.414063 194.078125C57.648438 192.863281 57.804688 192.570313 59.03125 192.570313L59.746094 192.570313 59.746094 197.9375C59.746094 198.953125 59.589844 199.066406 58.652344 199.066406L58.652344 199.398438 61.886719 199.398438 61.886719 199.066406C60.929688 199.066406 60.78125 198.953125 60.78125 197.9375L60.78125 192.570313 61.484375 192.570313C62.722656 192.570313 62.859375 192.863281 63.101563 194.078125L63.449219 194.078125M65.742188 195.394531C66.289063 194.890625 66.691406 194.703125 67.125 194.703125 68.027344 194.703125 68.152344 195.472656 68.152344 196.386719L68.152344 198.316406C68.152344 198.851563 68.105469 199.078125 67.335938 199.078125L67.335938 199.398438 69.902344 199.398438 69.902344 199.078125C69.199219 199.078125 69.078125 198.863281 69.078125 198.273438L69.078125 196.054688C69.078125 195.140625 68.867188 193.988281 67.582031 193.988281 66.992188 193.988281 66.476563 194.246094 65.773438 194.90625L65.742188 194.90625 65.742188 191.523438 65.441406 191.523438 63.945313 191.914063 63.945313 192.226563C63.945313 192.226563 64.089844 192.203125 64.269531 192.203125 64.570313 192.203125 64.816406 192.257813 64.816406 192.648438L64.816406 198.363281C64.816406 198.988281 64.613281 199.078125 64.035156 199.078125L64.035156 199.398438 66.566406 199.398438 66.566406 199.078125C65.796875 199.078125 65.742188 198.898438 65.742188 198.316406L65.742188 195.394531M76.125 198.898438L76.011719 198.898438C75.476563 198.898438 75.34375 198.820313 75.34375 198.160156L75.34375 194.066406 75.074219 194.066406 73.515625 194.234375 73.515625 194.546875C74.226563 194.546875 74.417969 194.601563 74.417969 195.195313L74.417969 198.128906C73.972656 198.519531 73.613281 198.796875 73.046875 198.796875 72.464844 198.796875 72.039063 198.460938 72.039063 197.324219L72.039063 194.066406 71.796875 194.066406 70.355469 194.234375 70.355469 194.546875C70.960938 194.558594 71.117188 194.601563 71.117188 195.203125L71.117188 197.46875C71.117188 198.988281 71.648438 199.511719 72.578125 199.511719 73.289063 199.511719 73.816406 199.175781 74.40625 198.597656L74.460938 198.597656 74.460938 199.457031 74.707031 199.457031 76.125 199.199219 76.125 198.898438M78.542969 194.023438L78.273438 194.023438 76.890625 194.359375 76.890625 194.671875C76.890625 194.671875 77.011719 194.648438 77.234375 194.648438 77.636719 194.648438 77.636719 194.847656 77.636719 195.25L77.636719 198.316406C77.636719 198.941406 77.558594 199.078125 76.824219 199.078125L76.824219 199.398438 79.613281 199.398438 79.613281 199.078125C78.777344 199.078125 78.5625 198.964844 78.5625 198.261719L78.5625 195.71875C78.832031 195.273438 79.1875 194.804688 79.445313 194.804688 79.578125 194.804688 79.800781 195.183594 80.171875 195.183594 80.414063 195.183594 80.660156 195.003906 80.660156 194.582031 80.660156 194.203125 80.449219 193.957031 80.015625 193.957031 79.476563 193.957031 79.144531 194.347656 78.574219 195.171875L78.542969 195.171875 78.542969 194.023438M81.234375 197.570313L81.269531 199.488281 81.503906 199.488281 81.738281 199.234375 81.757813 199.234375C82.050781 199.355469 82.382813 199.523438 83.03125 199.523438 84.035156 199.523438 84.90625 199.121094 84.90625 198.070313 84.90625 197.246094 84.359375 196.835938 83.34375 196.296875 82.40625 195.820313 82.039063 195.539063 82.039063 195.105469 82.039063 194.601563 82.429688 194.367188 82.941406 194.367188 83.621094 194.367188 84.035156 194.691406 84.28125 195.75L84.582031 195.75 84.546875 194.046875 84.324219 194.046875 84.136719 194.28125 84.125 194.28125C83.84375 194.144531 83.511719 193.988281 82.953125 193.988281 81.992188 193.988281 81.246094 194.480469 81.246094 195.394531 81.246094 196.21875 81.703125 196.609375 82.71875 197.125 83.757813 197.636719 83.96875 197.851563 83.96875 198.375 83.96875 198.898438 83.566406 199.109375 83.007813 199.109375 82.183594 199.109375 81.757813 198.71875 81.523438 197.570313L81.234375 197.570313M90.933594 199.199219L90.933594 198.898438 90.699219 198.898438C90.289063 198.898438 90.140625 198.785156 90.140625 198.207031L90.140625 191.523438 89.839844 191.523438 88.4375 191.914063 88.4375 192.226563C88.4375 192.226563 88.625 192.203125 88.726563 192.203125 89.160156 192.203125 89.214844 192.304688 89.214844 192.796875L89.214844 194.257813C88.871094 194.066406 88.5 193.988281 88.132813 193.988281 86.726563 193.988281 85.570313 195.117188 85.570313 196.957031 85.570313 198.382813 86.214844 199.488281 87.476563 199.488281 88.210938 199.488281 88.78125 199.066406 89.203125 198.6875L89.25 198.6875 89.25 199.457031 89.507813 199.457031zM89.214844 198.273438C88.828125 198.539063 88.523438 198.6875 88 198.6875 87.050781 198.6875 86.539063 198.0625 86.539063 196.523438 86.539063 195.117188 87.175781 194.4375 88.113281 194.4375 88.804688 194.4375 89.125 194.871094 89.214844 195.328125L89.214844 198.273438M94.636719 198.707031C94.703125 199.199219 94.8125 199.457031 95.304688 199.457031 95.875 199.457031 96.140625 199.222656 96.511719 198.6875L96.34375 198.507813C96.1875 198.675781 96.03125 198.785156 95.820313 198.785156 95.585938 198.785156 95.484375 198.695313 95.484375 198.238281L95.484375 195.707031C95.484375 194.546875 95.027344 193.988281 93.8125 193.988281 92.59375 193.988281 91.847656 194.59375 91.847656 195.214844 91.847656 195.585938 92.09375 195.75 92.316406 195.75 92.628906 195.75 92.804688 195.585938 92.804688 195.238281 92.804688 194.570313 92.917969 194.335938 93.554688 194.335938 94.222656 194.335938 94.558594 194.703125 94.558594 195.671875L94.558594 196.164063C93.597656 196.464844 91.625 196.757813 91.625 198.226563 91.625 198.941406 92.09375 199.476563 92.953125 199.476563 93.664063 199.476563 94.066406 199.164063 94.59375 198.707031zM94.558594 198.375C94.179688 198.6875 93.777344 198.863281 93.410156 198.863281 92.929688 198.863281 92.605469 198.519531 92.605469 197.960938 92.605469 197.089844 93.542969 196.789063 94.558594 196.53125L94.558594 198.375" />
  <path d="M101.898438 194.125L100.003906 194.125 100.003906 194.445313C100.371094 194.445313 100.628906 194.503906 100.628906 194.726563 100.628906 194.8125 100.59375 194.914063 100.570313 195.003906L99.5 198.273438 99.421875 198.273438 99.265625 197.695313 98.171875 195.238281C98.105469 195.082031 98.015625 194.890625 98.015625 194.757813 98.015625 194.558594 98.152344 194.457031 98.652344 194.457031L98.652344 194.125 96.265625 194.125 96.265625 194.445313C96.667969 194.445313 96.824219 194.59375 96.9375 194.847656L98.574219 198.429688C98.710938 198.730469 98.910156 199.199219 98.910156 199.34375 98.910156 199.667969 98.273438 201.050781 97.917969 201.050781 97.640625 201.050781 97.40625 200.804688 97.015625 200.804688 96.710938 200.804688 96.488281 200.949219 96.488281 201.285156 96.488281 201.710938 96.8125 201.867188 97.3125 201.867188 98.21875 201.867188 98.765625 201.285156 99.390625 199.644531L101.128906 195.070313C101.285156 194.636719 101.453125 194.445313 101.898438 194.445313L101.898438 194.125M130.804688 193.898438L130.738281 192.070313 124.800781 192.070313 124.800781 192.40625C125.605469 192.40625 125.882813 192.5625 125.882813 193.332031L125.882813 198.105469C125.882813 198.929688 125.703125 199.066406 124.800781 199.066406L124.800781 199.398438 128.070313 199.398438 128.070313 199.066406C127.199219 199.066406 126.910156 198.929688 126.910156 198.171875L126.910156 195.828125 128.226563 195.828125C129.1875 195.828125 129.410156 195.976563 129.410156 196.878906L129.789063 196.878906 129.789063 194.289063 129.410156 194.289063C129.410156 195.195313 129.1875 195.394531 128.226563 195.394531L126.910156 195.394531 126.910156 192.570313 128.683594 192.570313C130.144531 192.570313 130.246094 192.839844 130.445313 193.898438L130.804688 193.898438M132.84375 194.023438L132.574219 194.023438 131.191406 194.359375 131.191406 194.671875C131.191406 194.671875 131.3125 194.648438 131.535156 194.648438 131.9375 194.648438 131.9375 194.847656 131.9375 195.25L131.9375 198.316406C131.9375 198.941406 131.859375 199.078125 131.121094 199.078125L131.121094 199.398438 133.914063 199.398438 133.914063 199.078125C133.078125 199.078125 132.863281 198.964844 132.863281 198.261719L132.863281 195.71875C133.132813 195.273438 133.488281 194.804688 133.746094 194.804688 133.878906 194.804688 134.101563 195.183594 134.46875 195.183594 134.714844 195.183594 134.960938 195.003906 134.960938 194.582031 134.960938 194.203125 134.75 193.957031 134.3125 193.957031 133.777344 193.957031 133.445313 194.347656 132.875 195.171875L132.84375 195.171875 132.84375 194.023438M136.71875 191.667969C136.328125 191.667969 136.082031 191.960938 136.082031 192.292969 136.082031 192.640625 136.339844 192.929688 136.71875 192.929688 137.109375 192.929688 137.351563 192.640625 137.351563 192.292969 137.351563 191.960938 137.109375 191.667969 136.71875 191.667969zM137.96875 199.085938C137.21875 199.085938 137.164063 198.921875 137.164063 198.273438L137.164063 194.023438 136.871094 194.023438 135.46875 194.335938 135.46875 194.65625C135.46875 194.65625 135.589844 194.636719 135.746094 194.636719 136.070313 194.636719 136.238281 194.679688 136.238281 195.160156L136.238281 198.273438C136.238281 198.910156 136.203125 199.085938 135.457031 199.085938L135.457031 199.398438 137.96875 199.398438 137.96875 199.085938M144.035156 199.199219L144.035156 198.898438 143.800781 198.898438C143.386719 198.898438 143.242188 198.785156 143.242188 198.207031L143.242188 191.523438 142.941406 191.523438 141.535156 191.914063 141.535156 192.226563C141.535156 192.226563 141.726563 192.203125 141.824219 192.203125 142.261719 192.203125 142.316406 192.304688 142.316406 192.796875L142.316406 194.257813C141.96875 194.066406 141.601563 193.988281 141.234375 193.988281 139.828125 193.988281 138.667969 195.117188 138.667969 196.957031 138.667969 198.382813 139.316406 199.488281 140.578125 199.488281 141.3125 199.488281 141.882813 199.066406 142.304688 198.6875L142.351563 198.6875 142.351563 199.457031 142.605469 199.457031zM142.316406 198.273438C141.925781 198.539063 141.625 198.6875 141.101563 198.6875 140.152344 198.6875 139.640625 198.0625 139.640625 196.523438 139.640625 195.117188 140.273438 194.4375 141.214844 194.4375 141.902344 194.4375 142.226563 194.871094 142.316406 195.328125L142.316406 198.273438M147.734375 198.707031C147.804688 199.199219 147.914063 199.457031 148.40625 199.457031 148.976563 199.457031 149.242188 199.222656 149.609375 198.6875L149.445313 198.507813C149.289063 198.675781 149.132813 198.785156 148.917969 198.785156 148.683594 198.785156 148.585938 198.695313 148.585938 198.238281L148.585938 195.707031C148.585938 194.546875 148.128906 193.988281 146.910156 193.988281 145.695313 193.988281 144.945313 194.59375 144.945313 195.214844 144.945313 195.585938 145.191406 195.75 145.414063 195.75 145.726563 195.75 145.90625 195.585938 145.90625 195.238281 145.90625 194.570313 146.019531 194.335938 146.65625 194.335938 147.324219 194.335938 147.65625 194.703125 147.65625 195.671875L147.65625 196.164063C146.699219 196.464844 144.722656 196.757813 144.722656 198.226563 144.722656 198.941406 145.191406 199.476563 146.050781 199.476563 146.765625 199.476563 147.167969 199.164063 147.691406 198.707031zM147.65625 198.375C147.277344 198.6875 146.878906 198.863281 146.507813 198.863281 146.03125 198.863281 145.707031 198.519531 145.707031 197.960938 145.707031 197.089844 146.640625 196.789063 147.65625 196.53125L147.65625 198.375" />
  <path d="M155 194.125L153.101563 194.125 153.101563 194.445313C153.472656 194.445313 153.726563 194.503906 153.726563 194.726563 153.726563 194.8125 153.695313 194.914063 153.671875 195.003906L152.601563 198.273438 152.523438 198.273438 152.367188 197.695313 151.273438 195.238281C151.207031 195.082031 151.117188 194.890625 151.117188 194.757813 151.117188 194.558594 151.253906 194.457031 151.753906 194.457031L151.753906 194.125 149.367188 194.125 149.367188 194.445313C149.765625 194.445313 149.921875 194.59375 150.035156 194.847656L151.675781 198.429688C151.808594 198.730469 152.011719 199.199219 152.011719 199.34375 152.011719 199.667969 151.375 201.050781 151.015625 201.050781 150.738281 201.050781 150.503906 200.804688 150.113281 200.804688 149.8125 200.804688 149.589844 200.949219 149.589844 201.285156 149.589844 201.710938 149.914063 201.867188 150.414063 201.867188 151.320313 201.867188 151.867188 201.285156 152.492188 199.644531L154.230469 195.070313C154.386719 194.636719 154.554688 194.445313 155 194.445313L155 194.125M184.007813 194.191406L183.929688 191.960938 183.640625 191.960938C183.585938 192.195313 183.472656 192.28125 183.296875 192.28125 183.027344 192.28125 182.78125 191.9375 181.765625 191.9375 180.605469 191.945313 179.648438 192.570313 179.648438 193.742188 179.648438 194.914063 180.550781 195.449219 181.441406 195.964844 182.359375 196.488281 183.296875 196.878906 183.296875 197.859375 183.296875 198.707031 182.769531 199.042969 181.933594 199.042969 180.796875 199.054688 180.226563 198.695313 179.835938 197.15625L179.492188 197.15625 179.589844 199.566406 179.9375 199.566406C179.949219 199.34375 180.082031 199.199219 180.238281 199.199219 180.496094 199.199219 180.929688 199.535156 182.089844 199.535156 183.382813 199.535156 184.355469 198.832031 184.355469 197.539063 184.355469 196.210938 183.25 195.707031 182.257813 195.148438 181.421875 194.671875 180.617188 194.269531 180.617188 193.429688 180.617188 192.738281 181.054688 192.382813 181.8125 192.382813 182.9375 192.371094 183.359375 192.960938 183.671875 194.191406L184.007813 194.191406M188.234375 198.707031C188.304688 199.199219 188.414063 199.457031 188.90625 199.457031 189.476563 199.457031 189.742188 199.222656 190.109375 198.6875L189.945313 198.507813C189.789063 198.675781 189.632813 198.785156 189.417969 198.785156 189.183594 198.785156 189.085938 198.695313 189.085938 198.238281L189.085938 195.707031C189.085938 194.546875 188.628906 193.988281 187.410156 193.988281 186.195313 193.988281 185.445313 194.59375 185.445313 195.214844 185.445313 195.585938 185.691406 195.75 185.914063 195.75 186.226563 195.75 186.40625 195.585938 186.40625 195.238281 186.40625 194.570313 186.519531 194.335938 187.15625 194.335938 187.824219 194.335938 188.15625 194.703125 188.15625 195.671875L188.15625 196.164063C187.199219 196.464844 185.222656 196.757813 185.222656 198.226563 185.222656 198.941406 185.691406 199.476563 186.550781 199.476563 187.265625 199.476563 187.667969 199.164063 188.191406 198.707031zM188.15625 198.375C187.777344 198.6875 187.378906 198.863281 187.007813 198.863281 186.53125 198.863281 186.207031 198.519531 186.207031 197.960938 186.207031 197.089844 187.140625 196.789063 188.15625 196.53125L188.15625 198.375M193.367188 198.394531C193.089844 198.707031 192.945313 198.851563 192.589844 198.851563 192.152344 198.851563 192.054688 198.585938 192.054688 197.792969L192.054688 194.59375 193.3125 194.59375 193.3125 194.125 192.054688 194.125 192.0625 192.59375 191.773438 192.59375C191.371094 193.542969 191.039063 194.011719 190.511719 194.335938L190.511719 194.59375 191.128906 194.59375 191.128906 198.105469C191.128906 199.109375 191.449219 199.511719 192.195313 199.511719 192.910156 199.511719 193.144531 199.175781 193.582031 198.574219L193.367188 198.394531M199.726563 198.898438L199.613281 198.898438C199.078125 198.898438 198.945313 198.820313 198.945313 198.160156L198.945313 194.066406 198.675781 194.066406 197.113281 194.234375 197.113281 194.546875C197.828125 194.546875 198.015625 194.601563 198.015625 195.195313L198.015625 198.128906C197.570313 198.519531 197.214844 198.796875 196.644531 198.796875 196.066406 198.796875 195.640625 198.460938 195.640625 197.324219L195.640625 194.066406 195.394531 194.066406 193.957031 194.234375 193.957031 194.546875C194.558594 194.558594 194.714844 194.601563 194.714844 195.203125L194.714844 197.46875C194.714844 198.988281 195.25 199.511719 196.175781 199.511719 196.890625 199.511719 197.414063 199.175781 198.007813 198.597656L198.0625 198.597656 198.0625 199.457031 198.308594 199.457031 199.726563 199.199219 199.726563 198.898438M202.140625 194.023438L201.871094 194.023438 200.492188 194.359375 200.492188 194.671875C200.492188 194.671875 200.613281 194.648438 200.835938 194.648438 201.238281 194.648438 201.238281 194.847656 201.238281 195.25L201.238281 198.316406C201.238281 198.941406 201.160156 199.078125 200.421875 199.078125L200.421875 199.398438 203.214844 199.398438 203.214844 199.078125C202.378906 199.078125 202.164063 198.964844 202.164063 198.261719L202.164063 195.71875C202.429688 195.273438 202.789063 194.804688 203.046875 194.804688 203.179688 194.804688 203.402344 195.183594 203.769531 195.183594 204.015625 195.183594 204.261719 195.003906 204.261719 194.582031 204.261719 194.203125 204.050781 193.957031 203.613281 193.957031 203.078125 193.957031 202.742188 194.347656 202.175781 195.171875L202.140625 195.171875 202.140625 194.023438M209.933594 199.199219L209.933594 198.898438 209.699219 198.898438C209.289063 198.898438 209.140625 198.785156 209.140625 198.207031L209.140625 191.523438 208.839844 191.523438 207.4375 191.914063 207.4375 192.226563C207.4375 192.226563 207.625 192.203125 207.726563 192.203125 208.160156 192.203125 208.214844 192.304688 208.214844 192.796875L208.214844 194.257813C207.871094 194.066406 207.503906 193.988281 207.132813 193.988281 205.726563 193.988281 204.570313 195.117188 204.570313 196.957031 204.570313 198.382813 205.214844 199.488281 206.476563 199.488281 207.214844 199.488281 207.78125 199.066406 208.203125 198.6875L208.25 198.6875 208.25 199.457031 208.507813 199.457031zM208.214844 198.273438C207.828125 198.539063 207.523438 198.6875 207 198.6875 206.050781 198.6875 205.539063 198.0625 205.539063 196.523438 205.539063 195.117188 206.175781 194.4375 207.113281 194.4375 207.804688 194.4375 208.128906 194.871094 208.214844 195.328125L208.214844 198.273438M213.636719 198.707031C213.703125 199.199219 213.8125 199.457031 214.304688 199.457031 214.875 199.457031 215.140625 199.222656 215.511719 198.6875L215.34375 198.507813C215.1875 198.675781 215.03125 198.785156 214.820313 198.785156 214.585938 198.785156 214.484375 198.695313 214.484375 198.238281L214.484375 195.707031C214.484375 194.546875 214.027344 193.988281 212.8125 193.988281 211.59375 193.988281 210.847656 194.59375 210.847656 195.214844 210.847656 195.585938 211.09375 195.75 211.316406 195.75 211.628906 195.75 211.804688 195.585938 211.804688 195.238281 211.804688 194.570313 211.917969 194.335938 212.554688 194.335938 213.222656 194.335938 213.558594 194.703125 213.558594 195.671875L213.558594 196.164063C212.597656 196.464844 210.621094 196.757813 210.621094 198.226563 210.621094 198.941406 211.09375 199.476563 211.953125 199.476563 212.664063 199.476563 213.066406 199.164063 213.59375 198.707031zM213.558594 198.375C213.179688 198.6875 212.777344 198.863281 212.410156 198.863281 211.929688 198.863281 211.605469 198.519531 211.605469 197.960938 211.605469 197.089844 212.542969 196.789063 213.558594 196.53125L213.558594 198.375" />
  <path d="M220.898438 194.125L219.003906 194.125 219.003906 194.445313C219.371094 194.445313 219.628906 194.503906 219.628906 194.726563 219.628906 194.8125 219.59375 194.914063 219.570313 195.003906L218.503906 198.273438 218.421875 198.273438 218.265625 197.695313 217.171875 195.238281C217.105469 195.082031 217.015625 194.890625 217.015625 194.757813 217.015625 194.558594 217.152344 194.457031 217.652344 194.457031L217.652344 194.125 215.265625 194.125 215.265625 194.445313C215.667969 194.445313 215.824219 194.59375 215.9375 194.847656L217.574219 198.429688C217.710938 198.730469 217.910156 199.199219 217.910156 199.34375 217.910156 199.667969 217.273438 201.050781 216.917969 201.050781 216.640625 201.050781 216.40625 200.804688 216.015625 200.804688 215.714844 200.804688 215.488281 200.949219 215.488281 201.285156 215.488281 201.710938 215.8125 201.867188 216.3125 201.867188 217.21875 201.867188 217.765625 201.285156 218.390625 199.644531L220.128906 195.070313C220.285156 194.636719 220.453125 194.445313 220.898438 194.445313L220.898438 194.125M247.609375 194.191406L247.53125 191.960938 247.242188 191.960938C247.183594 192.195313 247.074219 192.28125 246.894531 192.28125 246.628906 192.28125 246.382813 191.9375 245.367188 191.9375 244.207031 191.945313 243.246094 192.570313 243.246094 193.742188 243.246094 194.914063 244.148438 195.449219 245.042969 195.964844 245.957031 196.488281 246.894531 196.878906 246.894531 197.859375 246.894531 198.707031 246.371094 199.042969 245.535156 199.042969 244.394531 199.054688 243.828125 198.695313 243.4375 197.15625L243.089844 197.15625 243.191406 199.566406 243.539063 199.566406C243.546875 199.34375 243.679688 199.199219 243.839844 199.199219 244.09375 199.199219 244.53125 199.535156 245.691406 199.535156 246.984375 199.535156 247.953125 198.832031 247.953125 197.539063 247.953125 196.210938 246.851563 195.707031 245.859375 195.148438 245.019531 194.671875 244.21875 194.269531 244.21875 193.429688 244.21875 192.738281 244.652344 192.382813 245.410156 192.382813 246.539063 192.371094 246.960938 192.960938 247.273438 194.191406L247.609375 194.191406M254.425781 198.898438L254.3125 198.898438C253.777344 198.898438 253.644531 198.820313 253.644531 198.160156L253.644531 194.066406 253.375 194.066406 251.8125 194.234375 251.8125 194.546875C252.527344 194.546875 252.71875 194.601563 252.71875 195.195313L252.71875 198.128906C252.273438 198.519531 251.914063 198.796875 251.34375 198.796875 250.765625 198.796875 250.339844 198.460938 250.339844 197.324219L250.339844 194.066406 250.09375 194.066406 248.65625 194.234375 248.65625 194.546875C249.257813 194.558594 249.414063 194.601563 249.414063 195.203125L249.414063 197.46875C249.414063 198.988281 249.949219 199.511719 250.878906 199.511719 251.589844 199.511719 252.117188 199.175781 252.707031 198.597656L252.761719 198.597656 252.761719 199.457031 253.007813 199.457031 254.425781 199.199219 254.425781 198.898438M260.164063 195.976563C260.164063 194.691406 259.6875 193.988281 258.671875 193.988281 257.96875 193.988281 257.476563 194.390625 256.875 194.925781L256.828125 194.925781 256.84375 194.023438 256.585938 194.023438 255.167969 194.347656 255.167969 194.671875C255.167969 194.671875 255.28125 194.648438 255.46875 194.648438 255.769531 194.648438 255.9375 194.734375 255.9375 195.140625L255.9375 198.273438C255.9375 198.898438 255.90625 199.085938 255.15625 199.085938L255.15625 199.398438 257.714844 199.398438 257.714844 199.085938C256.90625 199.085938 256.863281 198.898438 256.863281 198.273438L256.863281 195.40625C257.199219 195.105469 257.609375 194.703125 258.214844 194.703125 258.714844 194.703125 259.242188 194.914063 259.242188 196.253906L259.242188 198.273438C259.242188 198.898438 259.207031 199.085938 258.414063 199.085938L258.414063 199.398438 260.992188 199.398438 260.992188 199.085938C260.242188 199.085938 260.164063 198.898438 260.164063 198.273438L260.164063 195.976563M266.933594 199.199219L266.933594 198.898438 266.699219 198.898438C266.289063 198.898438 266.140625 198.785156 266.140625 198.207031L266.140625 191.523438 265.839844 191.523438 264.4375 191.914063 264.4375 192.226563C264.4375 192.226563 264.625 192.203125 264.726563 192.203125 265.160156 192.203125 265.214844 192.304688 265.214844 192.796875L265.214844 194.257813C264.871094 194.066406 264.503906 193.988281 264.132813 193.988281 262.726563 193.988281 261.570313 195.117188 261.570313 196.957031 261.570313 198.382813 262.214844 199.488281 263.476563 199.488281 264.214844 199.488281 264.78125 199.066406 265.203125 198.6875L265.25 198.6875 265.25 199.457031 265.507813 199.457031zM265.214844 198.273438C264.828125 198.539063 264.523438 198.6875 264 198.6875 263.050781 198.6875 262.539063 198.0625 262.539063 196.523438 262.539063 195.117188 263.175781 194.4375 264.113281 194.4375 264.804688 194.4375 265.128906 194.871094 265.214844 195.328125L265.214844 198.273438M270.636719 198.707031C270.703125 199.199219 270.8125 199.457031 271.304688 199.457031 271.875 199.457031 272.140625 199.222656 272.511719 198.6875L272.34375 198.507813C272.1875 198.675781 272.03125 198.785156 271.820313 198.785156 271.585938 198.785156 271.484375 198.695313 271.484375 198.238281L271.484375 195.707031C271.484375 194.546875 271.027344 193.988281 269.8125 193.988281 268.59375 193.988281 267.847656 194.59375 267.847656 195.214844 267.847656 195.585938 268.09375 195.75 268.316406 195.75 268.628906 195.75 268.804688 195.585938 268.804688 195.238281 268.804688 194.570313 268.917969 194.335938 269.554688 194.335938 270.222656 194.335938 270.558594 194.703125 270.558594 195.671875L270.558594 196.164063C269.597656 196.464844 267.621094 196.757813 267.621094 198.226563 267.621094 198.941406 268.09375 199.476563 268.953125 199.476563 269.664063 199.476563 270.066406 199.164063 270.59375 198.707031zM270.558594 198.375C270.179688 198.6875 269.777344 198.863281 269.410156 198.863281 268.929688 198.863281 268.605469 198.519531 268.605469 197.960938 268.605469 197.089844 269.542969 196.789063 270.558594 196.53125L270.558594 198.375" />
  <path d="M277.898438 194.125L276.003906 194.125 276.003906 194.445313C276.371094 194.445313 276.628906 194.503906 276.628906 194.726563 276.628906 194.8125 276.59375 194.914063 276.570313 195.003906L275.503906 198.273438 275.421875 198.273438 275.265625 197.695313 274.171875 195.238281C274.105469 195.082031 274.015625 194.890625 274.015625 194.757813 274.015625 194.558594 274.152344 194.457031 274.652344 194.457031L274.652344 194.125 272.265625 194.125 272.265625 194.445313C272.667969 194.445313 272.824219 194.59375 272.9375 194.847656L274.574219 198.429688C274.710938 198.730469 274.910156 199.199219 274.910156 199.34375 274.910156 199.667969 274.273438 201.050781 273.917969 201.050781 273.640625 201.050781 273.40625 200.804688 273.015625 200.804688 272.714844 200.804688 272.488281 200.949219 272.488281 201.285156 272.488281 201.710938 272.8125 201.867188 273.3125 201.867188 274.21875 201.867188 274.765625 201.285156 275.390625 199.644531L277.128906 195.070313C277.285156 194.636719 277.453125 194.445313 277.898438 194.445313L277.898438 194.125M310.582031 199.398438L310.582031 199.066406C309.78125 199.066406 309.601563 198.886719 309.601563 198.070313L309.601563 193.421875C309.601563 192.59375 309.78125 192.40625 310.570313 192.40625L310.570313 192.070313 308.453125 192.070313 306.109375 197.679688 306.0625 197.679688 303.710938 192.070313 301.433594 192.070313 301.433594 192.40625C302.316406 192.40625 302.472656 192.59375 302.472656 193.429688L302.472656 197.773438C302.472656 198.921875 302.316406 199.066406 301.414063 199.066406L301.414063 199.398438 304.035156 199.398438 304.035156 199.066406C303.1875 199.066406 303.019531 198.921875 303.019531 197.773438L303.019531 193.273438 303.0625 193.273438 305.695313 199.398438 305.964844 199.398438 308.5625 193.265625 308.609375 193.265625 308.609375 198.070313C308.609375 198.886719 308.476563 199.066406 307.617188 199.066406L307.617188 199.398438 310.582031 199.398438M314.078125 193.988281C312.570313 193.988281 311.578125 195.082031 311.578125 196.699219 311.578125 198.507813 312.515625 199.511719 314.078125 199.511719 315.527344 199.511719 316.554688 198.53125 316.554688 196.65625 316.554688 195.003906 315.605469 193.988281 314.078125 193.988281zM314.035156 194.414063C315.027344 194.414063 315.527344 195.339844 315.527344 196.710938 315.527344 198.53125 315.039063 199.066406 314.121094 199.066406 313.164063 199.078125 312.617188 198.328125 312.617188 196.554688 312.617188 195.125 313.1875 194.414063 314.035156 194.414063M322.265625 195.976563C322.265625 194.691406 321.785156 193.988281 320.773438 193.988281 320.070313 193.988281 319.578125 194.390625 318.976563 194.925781L318.929688 194.925781 318.941406 194.023438 318.683594 194.023438 317.269531 194.347656 317.269531 194.671875C317.269531 194.671875 317.378906 194.648438 317.570313 194.648438 317.871094 194.648438 318.039063 194.734375 318.039063 195.140625L318.039063 198.273438C318.039063 198.898438 318.003906 199.085938 317.257813 199.085938L317.257813 199.398438 319.8125 199.398438 319.8125 199.085938C319.007813 199.085938 318.964844 198.898438 318.964844 198.273438L318.964844 195.40625C319.296875 195.105469 319.710938 194.703125 320.3125 194.703125 320.816406 194.703125 321.339844 194.914063 321.339844 196.253906L321.339844 198.273438C321.339844 198.898438 321.304688 199.085938 320.515625 199.085938L320.515625 199.398438 323.09375 199.398438 323.09375 199.085938C322.34375 199.085938 322.265625 198.898438 322.265625 198.273438L322.265625 195.976563M329.132813 199.199219L329.132813 198.898438 328.898438 198.898438C328.488281 198.898438 328.34375 198.785156 328.34375 198.207031L328.34375 191.523438 328.039063 191.523438 326.636719 191.914063 326.636719 192.226563C326.636719 192.226563 326.824219 192.203125 326.925781 192.203125 327.359375 192.203125 327.414063 192.304688 327.414063 192.796875L327.414063 194.257813C327.070313 194.066406 326.703125 193.988281 326.335938 193.988281 324.929688 193.988281 323.769531 195.117188 323.769531 196.957031 323.769531 198.382813 324.414063 199.488281 325.675781 199.488281 326.414063 199.488281 326.980469 199.066406 327.40625 198.6875L327.449219 198.6875 327.449219 199.457031 327.707031 199.457031zM327.414063 198.273438C327.027344 198.539063 326.726563 198.6875 326.199219 198.6875 325.253906 198.6875 324.738281 198.0625 324.738281 196.523438 324.738281 195.117188 325.375 194.4375 326.3125 194.4375 327.003906 194.4375 327.328125 194.871094 327.414063 195.328125L327.414063 198.273438M332.835938 198.707031C332.902344 199.199219 333.015625 199.457031 333.507813 199.457031 334.074219 199.457031 334.34375 199.222656 334.710938 198.6875L334.542969 198.507813C334.386719 198.675781 334.230469 198.785156 334.019531 198.785156 333.785156 198.785156 333.683594 198.695313 333.683594 198.238281L333.683594 195.707031C333.683594 194.546875 333.226563 193.988281 332.011719 193.988281 330.796875 193.988281 330.046875 194.59375 330.046875 195.214844 330.046875 195.585938 330.292969 195.75 330.515625 195.75 330.828125 195.75 331.007813 195.585938 331.007813 195.238281 331.007813 194.570313 331.117188 194.335938 331.753906 194.335938 332.421875 194.335938 332.757813 194.703125 332.757813 195.671875L332.757813 196.164063C331.796875 196.464844 329.824219 196.757813 329.824219 198.226563 329.824219 198.941406 330.292969 199.476563 331.152344 199.476563 331.867188 199.476563 332.265625 199.164063 332.792969 198.707031zM332.757813 198.375C332.378906 198.6875 331.976563 198.863281 331.609375 198.863281 331.128906 198.863281 330.804688 198.519531 330.804688 197.960938 330.804688 197.089844 331.742188 196.789063 332.757813 196.53125L332.757813 198.375" />
  <path d="M340.101563 194.125L338.203125 194.125 338.203125 194.445313C338.570313 194.445313 338.828125 194.503906 338.828125 194.726563 338.828125 194.8125 338.796875 194.914063 338.773438 195.003906L337.703125 198.273438 337.621094 198.273438 337.46875 197.695313 336.371094 195.238281C336.304688 195.082031 336.21875 194.890625 336.21875 194.757813 336.21875 194.558594 336.351563 194.457031 336.851563 194.457031L336.851563 194.125 334.464844 194.125 334.464844 194.445313C334.867188 194.445313 335.023438 194.59375 335.136719 194.847656L336.773438 198.429688C336.910156 198.730469 337.109375 199.199219 337.109375 199.34375 337.109375 199.667969 336.476563 201.050781 336.117188 201.050781 335.839844 201.050781 335.605469 200.804688 335.214844 200.804688 334.914063 200.804688 334.6875 200.949219 334.6875 201.285156 334.6875 201.710938 335.011719 201.867188 335.515625 201.867188 336.417969 201.867188 336.964844 201.285156 337.589844 199.644531L339.328125 195.070313C339.484375 194.636719 339.652344 194.445313 340.101563 194.445313L340.101563 194.125M142.476563 16.371094L139.84375 16.371094 139.84375 16.703125C140.3125 16.703125 140.511719 16.773438 140.691406 16.984375 140.859375 17.171875 140.902344 17.476563 140.902344 18.144531L140.902344 21.757813 140.847656 21.757813 136.71875 16.371094 134.824219 16.371094 134.824219 16.703125C135.324219 16.703125 135.515625 16.816406 135.871094 17.273438L135.871094 22.035156C135.871094 23.164063 135.703125 23.367188 134.824219 23.367188L134.824219 23.699219 137.433594 23.699219 137.433594 23.367188C136.597656 23.367188 136.417969 23.152344 136.417969 22.035156L136.417969 17.820313 136.476563 17.820313 141.09375 23.789063 141.460938 23.789063 141.460938 18.199219C141.460938 17.398438 141.574219 17.085938 141.753906 16.929688 141.917969 16.773438 142.074219 16.703125 142.476563 16.703125L142.476563 16.371094M148.824219 23.199219L148.714844 23.199219C148.179688 23.199219 148.042969 23.121094 148.042969 22.460938L148.042969 18.367188 147.773438 18.367188 146.214844 18.535156 146.214844 18.847656C146.929688 18.847656 147.117188 18.902344 147.117188 19.492188L147.117188 22.429688C146.671875 22.820313 146.3125 23.097656 145.746094 23.097656 145.164063 23.097656 144.742188 22.761719 144.742188 21.625L144.742188 18.367188 144.496094 18.367188 143.054688 18.535156 143.054688 18.847656C143.660156 18.859375 143.816406 18.902344 143.816406 19.503906L143.816406 21.769531C143.816406 23.285156 144.351563 23.8125 145.277344 23.8125 145.992188 23.8125 146.515625 23.476563 147.105469 22.898438L147.164063 22.898438 147.164063 23.757813 147.40625 23.757813 148.824219 23.496094 148.824219 23.199219M151.265625 19.71875C151.589844 19.414063 152.078125 19.003906 152.65625 19.003906 153.171875 19.003906 153.550781 19.246094 153.550781 20.195313L153.550781 22.40625C153.550781 23.1875 153.484375 23.378906 152.691406 23.378906L152.691406 23.699219 155.335938 23.699219 155.335938 23.378906C154.53125 23.378906 154.476563 23.175781 154.476563 22.40625L154.476563 19.695313C154.84375 19.382813 155.304688 19.003906 155.757813 19.003906 156.285156 19.003906 156.71875 19.246094 156.71875 20.265625L156.71875 22.40625C156.71875 23.085938 156.6875 23.378906 155.925781 23.378906L155.925781 23.699219 158.449219 23.699219 158.449219 23.378906C157.679688 23.378906 157.644531 23.109375 157.644531 22.40625L157.644531 20.128906C157.644531 18.78125 157.078125 18.289063 156.207031 18.289063 155.617188 18.289063 155.046875 18.613281 154.433594 19.214844L154.386719 19.214844C154.164063 18.679688 153.785156 18.289063 153.148438 18.289063 152.390625 18.289063 151.878906 18.703125 151.273438 19.226563L151.230469 19.226563 151.230469 18.320313 150.964844 18.320313 149.570313 18.648438 149.570313 18.96875C149.570313 18.96875 149.703125 18.945313 149.867188 18.945313 150.179688 18.945313 150.339844 19.046875 150.339844 19.449219L150.339844 22.574219C150.339844 23.242188 150.257813 23.378906 149.554688 23.378906L149.554688 23.699219 152.101563 23.699219 152.101563 23.378906C151.410156 23.378906 151.265625 23.242188 151.265625 22.617188L151.265625 19.71875M160.617188 15.824219L160.328125 15.824219 158.890625 16.214844 158.890625 16.527344C158.890625 16.527344 159.023438 16.503906 159.203125 16.503906 159.625 16.503906 159.691406 16.59375 159.691406 17.09375L159.691406 23.367188C159.960938 23.511719 160.609375 23.8125 161.554688 23.8125 163.105469 23.8125 164.234375 22.761719 164.234375 20.765625 164.234375 19.316406 163.476563 18.289063 162.371094 18.289063 161.621094 18.289063 161.042969 18.769531 160.652344 19.238281L160.617188 19.238281zM160.617188 19.726563C160.820313 19.460938 161.3125 19.046875 161.878906 19.046875 162.9375 19.046875 163.21875 20.050781 163.21875 21.121094 163.21875 22.359375 162.816406 23.355469 161.757813 23.355469 161.164063 23.355469 160.828125 23.085938 160.617188 22.828125L160.617188 19.726563M169.230469 22.105469C168.871094 22.574219 168.527344 22.976563 167.621094 22.976563 166.730469 22.976563 165.882813 22.273438 165.882813 20.734375L169.40625 20.734375C169.351563 19.171875 168.550781 18.289063 167.332031 18.289063 166.027344 18.289063 164.980469 19.179688 164.980469 21.046875 164.980469 22.839844 166.015625 23.8125 167.355469 23.8125 168.503906 23.8125 169.039063 23.109375 169.441406 22.261719zM165.871094 20.320313C165.960938 19.28125 166.40625 18.734375 167.164063 18.734375 167.957031 18.734375 168.328125 19.492188 168.359375 20.320313L165.871094 20.320313M171.84375 18.320313L171.574219 18.320313 170.191406 18.65625 170.191406 18.96875C170.191406 18.96875 170.3125 18.945313 170.535156 18.945313 170.9375 18.945313 170.9375 19.148438 170.9375 19.550781L170.9375 22.617188C170.9375 23.242188 170.859375 23.378906 170.121094 23.378906L170.121094 23.699219 172.914063 23.699219 172.914063 23.378906C172.078125 23.378906 171.863281 23.265625 171.863281 22.5625L171.863281 20.019531C172.132813 19.570313 172.488281 19.101563 172.746094 19.101563 172.878906 19.101563 173.101563 19.484375 173.46875 19.484375 173.714844 19.484375 173.960938 19.304688 173.960938 18.882813 173.960938 18.503906 173.75 18.257813 173.3125 18.257813 172.777344 18.257813 172.445313 18.648438 171.875 19.472656L171.84375 19.472656 171.84375 18.320313M179.578125 18.289063C178.070313 18.289063 177.078125 19.382813 177.078125 21 177.078125 22.808594 178.015625 23.8125 179.578125 23.8125 181.027344 23.8125 182.054688 22.828125 182.054688 20.957031 182.054688 19.304688 181.105469 18.289063 179.578125 18.289063zM179.535156 18.710938C180.527344 18.710938 181.027344 19.640625 181.027344 21.011719 181.027344 22.828125 180.539063 23.367188 179.621094 23.367188 178.664063 23.378906 178.117188 22.628906 178.117188 20.855469 178.117188 19.425781 178.6875 18.710938 179.535156 18.710938M182.789063 18.421875L182.789063 18.890625 183.636719 18.890625 183.636719 22.371094C183.636719 23.242188 183.515625 23.378906 182.703125 23.378906L182.703125 23.699219 185.703125 23.699219 185.703125 23.378906C184.777344 23.378906 184.5625 23.242188 184.5625 22.371094L184.5625 18.890625 185.925781 18.890625 185.925781 18.421875 184.5625 18.421875 184.5625 17.429688C184.5625 16.492188 184.6875 16.15625 185.101563 16.15625 185.65625 16.15625 185.714844 17.007813 186.269531 17.007813 186.527344 17.007813 186.726563 16.851563 186.726563 16.527344 186.726563 16.023438 186.203125 15.746094 185.476563 15.746094 184.699219 15.746094 184.296875 16.046875 183.996094 16.558594 183.703125 17.074219 183.636719 17.574219 183.636719 18.421875L182.789063 18.421875M190.585938 22.238281C190.585938 23.199219 190.484375 23.367188 189.480469 23.367188L189.480469 23.699219 192.691406 23.699219 192.691406 23.367188C191.699219 23.367188 191.597656 23.199219 191.597656 22.238281L191.597656 17.84375C191.597656 16.972656 191.632813 16.703125 192.691406 16.703125L192.691406 16.371094 189.480469 16.371094 189.480469 16.703125C190.539063 16.703125 190.585938 16.972656 190.585938 17.84375L190.585938 22.238281M197.652344 22.046875C197.148438 22.695313 196.769531 22.976563 196.046875 22.976563 194.898438 22.976563 194.351563 22.015625 194.351563 20.65625 194.351563 19.371094 194.898438 18.703125 195.800781 18.703125 196.757813 18.703125 196.390625 19.972656 197.21875 19.972656 197.53125 19.972656 197.6875 19.796875 197.6875 19.472656 197.6875 18.824219 197.039063 18.289063 195.988281 18.289063 194.382813 18.289063 193.46875 19.425781 193.46875 21.179688 193.46875 22.730469 194.304688 23.8125 195.699219 23.8125 196.894531 23.8125 197.4375 23.109375 197.863281 22.203125L197.652344 22.046875M202.730469 22.105469C202.371094 22.574219 202.027344 22.976563 201.121094 22.976563 200.230469 22.976563 199.382813 22.273438 199.382813 20.734375L202.90625 20.734375C202.851563 19.171875 202.050781 18.289063 200.832031 18.289063 199.527344 18.289063 198.480469 19.179688 198.480469 21.046875 198.480469 22.839844 199.515625 23.8125 200.855469 23.8125 202.003906 23.8125 202.539063 23.109375 202.941406 22.261719zM199.371094 20.320313C199.460938 19.28125 199.90625 18.734375 200.664063 18.734375 201.457031 18.734375 201.828125 19.492188 201.859375 20.320313L199.371094 20.320313M212.683594 22.035156C212.058594 22.71875 211.3125 23.121094 210.285156 23.121094 208.710938 23.121094 207.617188 22.160156 207.617188 19.929688 207.617188 17.945313 208.523438 16.714844 210.128906 16.714844 211.277344 16.714844 212.070313 17.328125 212.316406 18.789063L212.695313 18.789063 212.695313 16.234375 212.359375 16.234375C212.226563 16.460938 212.160156 16.636719 211.980469 16.636719 211.703125 16.636719 211.289063 16.234375 210.117188 16.234375 207.976563 16.234375 206.457031 17.609375 206.457031 20.039063 206.457031 22.214844 207.664063 23.824219 209.960938 23.824219 211.421875 23.824219 212.347656 23.175781 212.953125 22.273438L212.683594 22.035156M215.542969 18.320313L215.273438 18.320313 213.890625 18.65625 213.890625 18.96875C213.890625 18.96875 214.011719 18.945313 214.234375 18.945313 214.636719 18.945313 214.636719 19.148438 214.636719 19.550781L214.636719 22.617188C214.636719 23.242188 214.558594 23.378906 213.824219 23.378906L213.824219 23.699219 216.613281 23.699219 216.613281 23.378906C215.777344 23.378906 215.5625 23.265625 215.5625 22.5625L215.5625 20.019531C215.832031 19.570313 216.1875 19.101563 216.445313 19.101563 216.578125 19.101563 216.800781 19.484375 217.171875 19.484375 217.414063 19.484375 217.660156 19.304688 217.660156 18.882813 217.660156 18.503906 217.449219 18.257813 217.015625 18.257813 216.476563 18.257813 216.144531 18.648438 215.574219 19.472656L215.542969 19.472656 215.542969 18.320313M222.230469 22.105469C221.871094 22.574219 221.527344 22.976563 220.621094 22.976563 219.730469 22.976563 218.882813 22.273438 218.882813 20.734375L222.40625 20.734375C222.351563 19.171875 221.550781 18.289063 220.332031 18.289063 219.027344 18.289063 217.980469 19.179688 217.980469 21.046875 217.980469 22.839844 219.015625 23.8125 220.355469 23.8125 221.503906 23.8125 222.039063 23.109375 222.441406 22.261719zM218.871094 20.320313C218.960938 19.28125 219.40625 18.734375 220.164063 18.734375 220.957031 18.734375 221.328125 19.492188 221.359375 20.320313L218.871094 20.320313M226.234375 23.007813C226.304688 23.496094 226.414063 23.757813 226.90625 23.757813 227.476563 23.757813 227.742188 23.523438 228.109375 22.984375L227.945313 22.808594C227.789063 22.976563 227.632813 23.085938 227.417969 23.085938 227.183594 23.085938 227.085938 22.996094 227.085938 22.539063L227.085938 20.007813C227.085938 18.847656 226.628906 18.289063 225.410156 18.289063 224.195313 18.289063 223.445313 18.890625 223.445313 19.515625 223.445313 19.882813 223.691406 20.050781 223.914063 20.050781 224.226563 20.050781 224.40625 19.882813 224.40625 19.539063 224.40625 18.867188 224.519531 18.632813 225.15625 18.632813 225.824219 18.632813 226.15625 19.003906 226.15625 19.972656L226.15625 20.464844C225.199219 20.765625 223.222656 21.054688 223.222656 22.527344 223.222656 23.242188 223.691406 23.777344 224.550781 23.777344 225.265625 23.777344 225.667969 23.464844 226.191406 23.007813zM226.15625 22.671875C225.777344 22.984375 225.378906 23.164063 225.007813 23.164063 224.53125 23.164063 224.207031 22.820313 224.207031 22.261719 224.207031 21.390625 225.140625 21.089844 226.15625 20.832031L226.15625 22.671875M230.265625 19.71875C230.589844 19.414063 231.078125 19.003906 231.65625 19.003906 232.171875 19.003906 232.550781 19.246094 232.550781 20.195313L232.550781 22.40625C232.550781 23.1875 232.484375 23.378906 231.691406 23.378906L231.691406 23.699219 234.335938 23.699219 234.335938 23.378906C233.53125 23.378906 233.476563 23.175781 233.476563 22.40625L233.476563 19.695313C233.84375 19.382813 234.304688 19.003906 234.757813 19.003906 235.285156 19.003906 235.71875 19.246094 235.71875 20.265625L235.71875 22.40625C235.71875 23.085938 235.6875 23.378906 234.925781 23.378906L234.925781 23.699219 237.449219 23.699219 237.449219 23.378906C236.679688 23.378906 236.644531 23.109375 236.644531 22.40625L236.644531 20.128906C236.644531 18.78125 236.078125 18.289063 235.207031 18.289063 234.617188 18.289063 234.046875 18.613281 233.433594 19.214844L233.386719 19.214844C233.164063 18.679688 232.785156 18.289063 232.148438 18.289063 231.390625 18.289063 230.878906 18.703125 230.273438 19.226563L230.230469 19.226563 230.230469 18.320313 229.964844 18.320313 228.570313 18.648438 228.570313 18.96875C228.570313 18.96875 228.703125 18.945313 228.867188 18.945313 229.179688 18.945313 229.339844 19.046875 229.339844 19.449219L229.339844 22.574219C229.339844 23.242188 229.257813 23.378906 228.554688 23.378906L228.554688 23.699219 231.101563 23.699219 231.101563 23.378906C230.410156 23.378906 230.265625 23.242188 230.265625 22.617188L230.265625 19.71875M238.132813 21.871094L238.167969 23.789063 238.402344 23.789063 238.636719 23.53125 238.660156 23.53125C238.949219 23.65625 239.285156 23.824219 239.929688 23.824219 240.9375 23.824219 241.804688 23.421875 241.804688 22.371094 241.804688 21.546875 241.257813 21.132813 240.242188 20.597656 239.304688 20.117188 238.9375 19.839844 238.9375 19.40625 238.9375 18.902344 239.328125 18.667969 239.84375 18.667969 240.523438 18.667969 240.9375 18.992188 241.179688 20.050781L241.480469 20.050781 241.449219 18.34375 241.226563 18.34375 241.035156 18.578125 241.023438 18.578125C240.746094 18.445313 240.410156 18.289063 239.851563 18.289063 238.894531 18.289063 238.148438 18.78125 238.148438 19.695313 238.148438 20.519531 238.601563 20.910156 239.617188 21.421875 240.65625 21.9375 240.867188 22.148438 240.867188 22.671875 240.867188 23.199219 240.46875 23.410156 239.910156 23.410156 239.082031 23.410156 238.660156 23.019531 238.425781 21.871094L238.132813 21.871094M249.710938 18.492188L249.632813 16.257813 249.339844 16.257813C249.285156 16.492188 249.171875 16.582031 248.996094 16.582031 248.726563 16.582031 248.480469 16.234375 247.464844 16.234375 246.304688 16.246094 245.347656 16.871094 245.347656 18.042969 245.347656 19.214844 246.25 19.75 247.140625 20.265625 248.058594 20.785156 248.996094 21.179688 248.996094 22.160156 248.996094 23.007813 248.46875 23.34375 247.632813 23.34375 246.496094 23.355469 245.925781 22.996094 245.535156 21.457031L245.191406 21.457031 245.289063 23.867188 245.636719 23.867188C245.648438 23.644531 245.78125 23.496094 245.9375 23.496094 246.195313 23.496094 246.628906 23.835938 247.789063 23.835938 249.085938 23.835938 250.054688 23.132813 250.054688 21.835938 250.054688 20.507813 248.949219 20.007813 247.957031 19.449219 247.121094 18.96875 246.316406 18.570313 246.316406 17.730469 246.316406 17.039063 246.753906 16.683594 247.511719 16.683594 248.636719 16.671875 249.0625 17.261719 249.371094 18.492188L249.710938 18.492188M253.277344 18.289063C251.773438 18.289063 250.78125 19.382813 250.78125 21 250.78125 22.808594 251.71875 23.8125 253.277344 23.8125 254.726563 23.8125 255.753906 22.828125 255.753906 20.957031 255.753906 19.304688 254.804688 18.289063 253.277344 18.289063zM253.234375 18.710938C254.226563 18.710938 254.726563 19.640625 254.726563 21.011719 254.726563 22.828125 254.238281 23.367188 253.324219 23.367188 252.363281 23.378906 251.816406 22.628906 251.816406 20.855469 251.816406 19.425781 252.386719 18.710938 253.234375 18.710938M259.101563 23.378906C258.296875 23.378906 258.242188 23.21875 258.242188 22.574219L258.242188 15.824219 257.964844 15.824219 256.492188 16.214844 256.492188 16.515625C256.492188 16.515625 256.65625 16.492188 256.847656 16.492188 257.128906 16.492188 257.316406 16.515625 257.316406 16.972656L257.316406 22.574219C257.316406 23.199219 257.269531 23.378906 256.535156 23.378906L256.535156 23.699219 259.101563 23.699219 259.101563 23.378906M265.132813 23.496094L265.132813 23.199219 264.898438 23.199219C264.488281 23.199219 264.34375 23.085938 264.34375 22.507813L264.34375 15.824219 264.039063 15.824219 262.636719 16.214844 262.636719 16.527344C262.636719 16.527344 262.824219 16.503906 262.925781 16.503906 263.359375 16.503906 263.414063 16.605469 263.414063 17.09375L263.414063 18.554688C263.070313 18.367188 262.703125 18.289063 262.335938 18.289063 260.929688 18.289063 259.769531 19.414063 259.769531 21.257813 259.769531 22.683594 260.414063 23.789063 261.675781 23.789063 262.414063 23.789063 262.980469 23.367188 263.40625 22.984375L263.449219 22.984375 263.449219 23.757813 263.707031 23.757813zM263.414063 22.574219C263.027344 22.839844 262.726563 22.984375 262.199219 22.984375 261.253906 22.984375 260.738281 22.359375 260.738281 20.820313 260.738281 19.414063 261.375 18.734375 262.3125 18.734375 263.003906 18.734375 263.328125 19.171875 263.414063 19.628906L263.414063 22.574219" />
  <path d="M763.710938 881.820313L823.515625 941.625M763.710938 941.625L823.515625 881.820313M1366.757813 1082.835938L1426.523438 1142.601563M1366.757813 1142.601563L1426.523438 1082.835938M1969.765625 1317.367188L2029.53125 1377.132813M1969.765625 1377.132813L2029.53125 1317.367188M2572.8125 1685.882813L2632.578125 1745.648438M2572.8125 1745.648438L2632.578125 1685.882813M3175.859375 814.828125L3235.625 874.59375M3175.859375 874.59375L3235.625 814.828125" transform="matrix(.1 0 0 -.1 0 234.1)" fill="none" stroke-width="14.944" stroke-linejoin="round" stroke="#55a4e0" stroke-miterlimit="10" />
  <path d="M 793.59375 911.703125 L 1396.640625 1112.71875 L 1999.6875 1347.25 L 2602.695313 1715.765625 L 3205.703125 844.710938" transform="matrix(.1 0 0 -.1 0 234.1)" fill="none" stroke-width="7.97" stroke-linejoin="round" stroke="#55a4e0" stroke-miterlimit="10" />
</svg>